<?xml version="1.0" encoding="UTF-8" standalone="no"?>
<!-- Created with Inkscape (http://www.inkscape.org/) -->

<svg
   xmlns:dc="http://purl.org/dc/elements/1.1/"
   xmlns:cc="http://creativecommons.org/ns#"
   xmlns:rdf="http://www.w3.org/1999/02/22-rdf-syntax-ns#"
   xmlns:svg="http://www.w3.org/2000/svg"
   xmlns="http://www.w3.org/2000/svg"
   xmlns:xlink="http://www.w3.org/1999/xlink"
   xmlns:sodipodi="http://sodipodi.sourceforge.net/DTD/sodipodi-0.dtd"
   xmlns:inkscape="http://www.inkscape.org/namespaces/inkscape"
   width="900"
   height="650"
   viewBox="0 0 238.12501 171.97916"
   version="1.1"
   id="svg8"
   inkscape:version="0.92.4 (5da689c313, 2019-01-14)"
   sodipodi:docname="analytics.svg">
  <defs
     id="defs2">
    <linearGradient
       inkscape:collect="always"
       id="linearGradient1108">
      <stop
         style="stop-color:#666666;stop-opacity:1;"
         offset="0"
         id="stop1104" />
      <stop
         style="stop-color:#666666;stop-opacity:0;"
         offset="1"
         id="stop1106" />
    </linearGradient>
    <linearGradient
       inkscape:collect="always"
       id="linearGradient2407">
      <stop
         style="stop-color:#545454;stop-opacity:1"
         offset="0"
         id="stop2403" />
      <stop
         style="stop-color:#333333;stop-opacity:1"
         offset="1"
         id="stop2405" />
    </linearGradient>
    <linearGradient
       inkscape:collect="always"
       xlink:href="#linearGradient2407"
       id="linearGradient2409-4"
       x1="2619.783"
       y1="1838.2933"
       x2="2777.7827"
       y2="1750.3982"
       gradientUnits="userSpaceOnUse"
       gradientTransform="matrix(0.94124045,0,0,0.67978477,-2465.8457,-952.64384)" />
    <linearGradient
       inkscape:collect="always"
       xlink:href="#linearGradient1108"
       id="linearGradient1110"
       x1="167.87105"
       y1="235.47075"
       x2="55.751488"
       y2="255.11507"
       gradientUnits="userSpaceOnUse"
       gradientTransform="translate(0,6.879167)" />
  </defs>
  <sodipodi:namedview
     id="base"
     pagecolor="#ffffff"
     bordercolor="#666666"
     borderopacity="1.0"
     inkscape:pageopacity="0.0"
     inkscape:pageshadow="2"
     inkscape:zoom="0.7"
     inkscape:cx="193.35703"
     inkscape:cy="122.47144"
     inkscape:document-units="px"
     inkscape:current-layer="layer1"
     showgrid="false"
     units="px"
     inkscape:window-width="1920"
     inkscape:window-height="1057"
     inkscape:window-x="-8"
     inkscape:window-y="-8"
     inkscape:window-maximized="1"
     inkscape:snap-center="true" />
  <metadata
     id="metadata5">
    <rdf:RDF>
      <cc:Work
         rdf:about="">
        <dc:format>image/svg+xml</dc:format>
        <dc:type
           rdf:resource="http://purl.org/dc/dcmitype/StillImage" />
        <dc:title />
      </cc:Work>
    </rdf:RDF>
  </metadata>
  <g
     inkscape:label="Layer 1"
     inkscape:groupmode="layer"
     id="layer1"
     transform="translate(0,-125.02084)">
    <flowRoot
       xml:space="preserve"
       id="flowRoot1022"
       style="fill:black;fill-opacity:1;stroke:none;font-family:Dubai;font-style:normal;font-weight:normal;font-size:10.66666667px;line-height:1.25;letter-spacing:0px;word-spacing:0px;-inkscape-font-specification:Dubai;font-stretch:normal;font-variant:normal"><flowRegion
         id="flowRegion1024"><rect
           id="rect1026"
           width="771.75653"
           height="662.6601"
           x="-458.60925"
           y="-335.90887" /></flowRegion><flowPara
         id="flowPara1028"></flowPara></flowRoot>    <flowRoot
       xml:space="preserve"
       id="flowRoot1030"
       style="fill:black;fill-opacity:1;stroke:none;font-family:Dubai;font-style:normal;font-weight:normal;font-size:10.66666667px;line-height:1.25;letter-spacing:0px;word-spacing:0px;-inkscape-font-specification:Dubai;font-stretch:normal;font-variant:normal"><flowRegion
         id="flowRegion1032"><rect
           id="rect1034"
           width="527.29962"
           height="557.60419"
           x="-258.59906"
           y="-273.27942" /></flowRegion><flowPara
         id="flowPara1036"></flowPara></flowRoot>    <text
       xml:space="preserve"
       style="font-style:normal;font-variant:normal;font-weight:normal;font-stretch:normal;font-size:2.82222223px;line-height:1.25;font-family:Dubai;-inkscape-font-specification:Dubai;letter-spacing:0px;word-spacing:0px;fill:#000000;fill-opacity:1;stroke:none;stroke-width:0.26458332"
       x="179.60512"
       y="150.5363"
       id="text1204"><tspan
         sodipodi:role="line"
         id="tspan1202"
         x="179.60512"
         y="153.01981"
         style="stroke-width:0.26458332"></tspan></text>
    <g
       id="g1459">
      <path
         style="display:inline;opacity:1;fill:url(#linearGradient2409-4);fill-opacity:1;stroke:none;stroke-width:1.34312761;stroke-linejoin:round;stroke-miterlimit:4;stroke-dasharray:none;stroke-dashoffset:0;stroke-opacity:1"
         d="M 0,125.02084 H 238.125 V 297.00002 H 0 Z"
         id="rect1228-4-1-6-7"
         inkscape:connector-curvature="0" />
      <path
         inkscape:connector-curvature="0"
         id="rect930"
         d="M 103.48963,275.81896 H 218.8102 c 2.36607,0 4.27088,1.90481 4.27088,4.27087 v 7.34763 c 0,2.36607 -1.90481,4.27088 -4.27088,4.27088 H 103.48963 c -2.36607,0 -4.27088,-1.90481 -4.27088,-4.27088 v -7.34763 c 0,-2.36606 1.90481,-4.27087 4.27088,-4.27087 z"
         style="opacity:1;fill:#ffffff;fill-opacity:1;stroke:none;stroke-width:2.7165432;stroke-linecap:round;stroke-linejoin:miter;stroke-miterlimit:4;stroke-dasharray:none;stroke-dashoffset:0;stroke-opacity:0.7474747" />
      <g
         id="flowRoot922"
         style="font-style:normal;font-variant:normal;font-weight:normal;font-stretch:normal;font-size:192px;line-height:1.25;font-family:Dubai;-inkscape-font-specification:Dubai;letter-spacing:0px;word-spacing:0px;fill:#056dd9;fill-opacity:1;stroke:none"
         transform="matrix(0.15659099,0,0,0.15659099,114.70034,257.71694)"
         aria-label="Business Analytics">
        <path
           inkscape:connector-curvature="0"
           id="path1271"
           style="font-style:normal;font-variant:normal;font-weight:bold;font-stretch:normal;font-size:96px;font-family:Dubai;-inkscape-font-specification:'Dubai Bold';fill:#056dd9;fill-opacity:1"
           d="m -42.898844,157.64791 q 4.032,1.056 6.72,3.36 2.784,2.208 4.032,5.088 1.344,2.88 1.344,6.048 0,8.736 -6.144,13.536 -6.144,4.704 -17.568,4.704 h -24.384 v -62.208 h 22.752 q 7.392,0 12.48,2.112 5.184,2.016 7.776,5.76 2.592,3.648 2.592,8.64 0,4.128 -2.4,7.68 -2.4,3.456 -7.2,5.28 z m -22.368,-18.72 v 14.496 h 7.584 q 10.56,0 10.56,-7.584 0,-3.36 -2.4,-5.088 -2.304,-1.824 -6.816,-1.824 z m 9.6,40.512 q 5.856,0 8.352,-2.112 2.496,-2.208 2.496,-5.856 0,-3.552 -2.592,-5.664 -2.592,-2.112 -7.872,-2.112 h -9.984 v 15.744 z" />
        <path
           inkscape:connector-curvature="0"
           id="path1273"
           style="font-style:normal;font-variant:normal;font-weight:bold;font-stretch:normal;font-size:96px;font-family:Dubai;-inkscape-font-specification:'Dubai Bold';fill:#056dd9;fill-opacity:1"
           d="m 18.865156,146.22391 v 44.16 H 7.7291563 l -1.0560001,-3.456 q -7.39199995,4.8 -15.168,4.8 -6.4320002,0 -9.9840002,-3.552 -3.456,-3.552 -3.456,-9.792 v -30.912 l 13.0560002,-1.248 v 28.32 q 0,3.84 1.2480001,5.568 1.248,1.632 4.5119999,1.632 3.45600005,0 8.9280001,-2.976 v -31.296 z" />
        <path
           inkscape:connector-curvature="0"
           id="path1275"
           style="font-style:normal;font-variant:normal;font-weight:bold;font-stretch:normal;font-size:96px;font-family:Dubai;-inkscape-font-specification:'Dubai Bold';fill:#056dd9;fill-opacity:1"
           d="m 45.655156,191.72791 q -6.144,0 -11.04,-1.44 -4.8,-1.536 -9.024,-4.512 l 5.472,-8.352 q 3.552,2.592 7.2,3.744 3.648,1.056 7.008,1.056 3.168,0 4.608,-0.96 1.536,-0.96 1.536,-2.592 0,-1.056 -0.576,-1.824 -0.576,-0.864 -2.4,-1.632 -1.728,-0.864 -5.184,-1.824 l -2.784,-0.768 q -6.912,-1.92 -9.984,-4.992 -2.976,-3.072 -2.976,-8.352 0,-4.032 2.208,-7.104 2.208,-3.072 6.24,-4.704 4.032,-1.728 9.216,-1.728 9.792,0 17.76,4.704 l -4.992,8.352 q -3.936,-2.016 -6.624,-2.784 -2.688,-0.768 -5.76,-0.768 -2.4,0 -3.648,0.864 -1.152,0.864 -1.152,2.208 0,0.96 0.48,1.632 0.48,0.576 1.728,1.152 1.344,0.48 4.128,1.248 l 3.168,0.864 q 7.392,1.92 10.752,5.376 3.456,3.456 3.456,8.736 0,4.128 -2.112,7.392 -2.016,3.264 -6.336,5.184 -4.224,1.824 -10.368,1.824 z" />
        <path
           inkscape:connector-curvature="0"
           id="path1277"
           style="font-style:normal;font-variant:normal;font-weight:bold;font-stretch:normal;font-size:96px;font-family:Dubai;-inkscape-font-specification:'Dubai Bold';fill:#056dd9;fill-opacity:1"
           d="m 78.631156,140.75191 q -2.208,0 -4.128,-1.056 -1.92,-1.152 -3.072,-2.976 -1.152,-1.824 -1.152,-4.032 0,-2.208 1.152,-4.032 1.152,-1.92 3.072,-2.976 1.92,-1.152 4.128,-1.152 2.304,0 4.224,1.152 2.016,1.056 3.168,2.976 1.152,1.824 1.152,4.032 0,2.208 -1.152,4.032 -1.152,1.824 -3.168,2.976 -1.92,1.056 -4.224,1.056 z m -6.336,49.632 v -42.912 l 13.056,-1.248 v 44.16 z" />
        <path
           inkscape:connector-curvature="0"
           id="path1279"
           style="font-style:normal;font-variant:normal;font-weight:bold;font-stretch:normal;font-size:96px;font-family:Dubai;-inkscape-font-specification:'Dubai Bold';fill:#056dd9;fill-opacity:1"
           d="m 124.50566,145.74391 q 6.624,0 9.984,3.36 3.36,3.264 3.36,9.6 v 31.68 h -13.056 v -27.84 q 0,-2.688 -0.576,-4.128 -0.48,-1.536 -1.728,-2.208 -1.248,-0.672 -3.552,-0.672 -3.84,0 -9.024,3.072 v 31.776 H 96.857656 v -42.912 l 13.056004,-1.248 v 4.224 q 3.552,-2.208 7.104,-3.456 3.648,-1.248 7.488,-1.248 z" />
        <path
           inkscape:connector-curvature="0"
           id="path1281"
           style="font-style:normal;font-variant:normal;font-weight:bold;font-stretch:normal;font-size:96px;font-family:Dubai;-inkscape-font-specification:'Dubai Bold';fill:#056dd9;fill-opacity:1"
           d="m 187.38266,164.84791 q 0,1.92 -0.384,6.72 h -27.648 q 0.576,5.376 3.552,7.968 2.976,2.496 7.104,2.496 3.072,0 5.952,-0.864 2.88,-0.864 6.144,-2.784 l 4.416,7.872 q -3.456,2.592 -7.968,4.032 -4.512,1.44 -9.792,1.44 -6.336,0 -11.424,-2.304 -4.992,-2.304 -8.064,-7.296 -2.976,-5.088 -2.976,-13.056 0,-7.296 2.496,-12.576 2.592,-5.28 7.392,-7.968 4.896,-2.784 11.52,-2.784 6.336,0 10.752,2.496 4.512,2.496 6.72,6.816 2.208,4.32 2.208,9.792 z m -19.392,-10.272 q -3.36,0 -5.472,2.112 -2.016,2.016 -2.784,6.432 h 15.264 v -0.288 q 0,-4.416 -1.92,-6.336 -1.92,-1.92 -5.088,-1.92 z" />
        <path
           inkscape:connector-curvature="0"
           id="path1283"
           style="font-style:normal;font-variant:normal;font-weight:bold;font-stretch:normal;font-size:96px;font-family:Dubai;-inkscape-font-specification:'Dubai Bold';fill:#056dd9;fill-opacity:1"
           d="m 211.59266,191.72791 q -6.144,0 -11.04,-1.44 -4.8,-1.536 -9.024,-4.512 l 5.472,-8.352 q 3.552,2.592 7.2,3.744 3.648,1.056 7.008,1.056 3.168,0 4.608,-0.96 1.536,-0.96 1.536,-2.592 0,-1.056 -0.576,-1.824 -0.576,-0.864 -2.4,-1.632 -1.728,-0.864 -5.184,-1.824 l -2.784,-0.768 q -6.912,-1.92 -9.984,-4.992 -2.976,-3.072 -2.976,-8.352 0,-4.032 2.208,-7.104 2.208,-3.072 6.24,-4.704 4.032,-1.728 9.216,-1.728 9.792,0 17.76,4.704 l -4.992,8.352 q -3.936,-2.016 -6.624,-2.784 -2.688,-0.768 -5.76,-0.768 -2.4,0 -3.648,0.864 -1.152,0.864 -1.152,2.208 0,0.96 0.48,1.632 0.48,0.576 1.728,1.152 1.344,0.48 4.128,1.248 l 3.168,0.864 q 7.392,1.92 10.752,5.376 3.456,3.456 3.456,8.736 0,4.128 -2.112,7.392 -2.016,3.264 -6.336,5.184 -4.224,1.824 -10.368,1.824 z" />
        <path
           inkscape:connector-curvature="0"
           id="path1285"
           style="font-style:normal;font-variant:normal;font-weight:bold;font-stretch:normal;font-size:96px;font-family:Dubai;-inkscape-font-specification:'Dubai Bold';fill:#056dd9;fill-opacity:1"
           d="m 253.59266,191.72791 q -6.144,0 -11.04,-1.44 -4.8,-1.536 -9.024,-4.512 l 5.472,-8.352 q 3.552,2.592 7.2,3.744 3.648,1.056 7.008,1.056 3.168,0 4.608,-0.96 1.536,-0.96 1.536,-2.592 0,-1.056 -0.576,-1.824 -0.576,-0.864 -2.4,-1.632 -1.728,-0.864 -5.184,-1.824 l -2.784,-0.768 q -6.912,-1.92 -9.984,-4.992 -2.976,-3.072 -2.976,-8.352 0,-4.032 2.208,-7.104 2.208,-3.072 6.24,-4.704 4.032,-1.728 9.216,-1.728 9.792,0 17.76,4.704 l -4.992,8.352 q -3.936,-2.016 -6.624,-2.784 -2.688,-0.768 -5.76,-0.768 -2.4,0 -3.648,0.864 -1.152,0.864 -1.152,2.208 0,0.96 0.48,1.632 0.48,0.576 1.728,1.152 1.344,0.48 4.128,1.248 l 3.168,0.864 q 7.392,1.92 10.752,5.376 3.456,3.456 3.456,8.736 0,4.128 -2.112,7.392 -2.016,3.264 -6.336,5.184 -4.224,1.824 -10.368,1.824 z" />
        <path
           inkscape:connector-curvature="0"
           id="path1287"
           style="font-style:normal;font-variant:normal;font-weight:bold;font-stretch:normal;font-size:96px;font-family:Dubai;-inkscape-font-specification:'Dubai Bold';fill:#056dd9;fill-opacity:1"
           d="m 336.54716,128.17591 22.368,61.44 v 0.768 h -14.496 l -4.992,-14.88 h -23.04 l -4.896,14.88 h -14.304 v -0.768 l 22.368,-61.44 z m -16.512,36.384 h 15.744 l -7.968,-23.712 z" />
        <path
           inkscape:connector-curvature="0"
           id="path1289"
           style="font-style:normal;font-variant:normal;font-weight:bold;font-stretch:normal;font-size:96px;font-family:Dubai;-inkscape-font-specification:'Dubai Bold';fill:#056dd9;fill-opacity:1"
           d="m 393.56816,145.74391 q 6.624,0 9.984,3.36 3.36,3.264 3.36,9.6 v 31.68 h -13.056 v -27.84 q 0,-2.688 -0.576,-4.128 -0.48,-1.536 -1.728,-2.208 -1.248,-0.672 -3.552,-0.672 -3.84,0 -9.024,3.072 v 31.776 h -13.056 v -42.912 l 13.056,-1.248 v 4.224 q 3.552,-2.208 7.104,-3.456 3.648,-1.248 7.488,-1.248 z" />
        <path
           inkscape:connector-curvature="0"
           id="path1291"
           style="font-style:normal;font-variant:normal;font-weight:bold;font-stretch:normal;font-size:96px;font-family:Dubai;-inkscape-font-specification:'Dubai Bold';fill:#056dd9;fill-opacity:1"
           d="m 437.53316,145.74391 q 8.448,0 12.672,3.36 4.32,3.264 4.32,10.848 v 30.432 h -11.136 l -1.056,-3.36 q -3.552,2.592 -7.104,3.648 -3.456,1.056 -7.296,1.056 -4.032,0 -7.104,-1.536 -3.072,-1.536 -4.8,-4.224 -1.632,-2.784 -1.632,-6.336 0,-7.584 7.488,-11.52 7.488,-4.032 19.584,-4.512 v -1.056 q 0,-2.688 -0.576,-4.224 -0.48,-1.536 -1.824,-2.208 -1.344,-0.768 -3.744,-0.768 -6.048,0 -13.728,4.896 l -4.992,-7.872 q 5.184,-3.36 10.08,-4.992 4.992,-1.632 10.848,-1.632 z m -9.6,32.256 q 0,2.112 1.248,3.264 1.248,1.056 3.648,1.056 3.936,0 8.64,-2.592 v -8.352 q -7.008,0.384 -10.272,2.208 -3.264,1.824 -3.264,4.416 z" />
        <path
           inkscape:connector-curvature="0"
           id="path1293"
           style="font-style:normal;font-variant:normal;font-weight:bold;font-stretch:normal;font-size:96px;font-family:Dubai;-inkscape-font-specification:'Dubai Bold';fill:#056dd9;fill-opacity:1"
           d="m 465.48266,190.38391 v -66.048 l 13.056,-1.248 v 67.296 z" />
        <path
           inkscape:connector-curvature="0"
           id="path1295"
           style="font-style:normal;font-variant:normal;font-weight:bold;font-stretch:normal;font-size:96px;font-family:Dubai;-inkscape-font-specification:'Dubai Bold';fill:#056dd9;fill-opacity:1"
           d="m 529.59716,147.18391 v 0.672 l -13.152,40.896 q -2.4,7.488 -5.472,12 -2.976,4.512 -7.2,6.624 -4.128,2.208 -10.08,2.208 -5.184,0 -9.6,-1.728 l 3.264,-9.12 q 2.592,0.96 5.376,0.96 2.304,0 4.128,-0.672 1.824,-0.576 3.552,-2.688 1.728,-2.016 3.264,-5.952 h -3.456 l -16.128,-42.528 v -0.672 h 13.632 l 7.68,23.136 q 0.864,2.592 2.112,7.776 0.864,-3.84 2.016,-7.584 l 6.528,-23.328 z" />
        <path
           inkscape:connector-curvature="0"
           id="path1297"
           style="font-style:normal;font-variant:normal;font-weight:bold;font-stretch:normal;font-size:96px;font-family:Dubai;-inkscape-font-specification:'Dubai Bold';fill:#056dd9;fill-opacity:1"
           d="m 564.41216,188.55991 q -5.664,3.168 -12.672,3.168 -3.552,0 -6.624,-1.344 -2.976,-1.44 -4.896,-4.512 -1.92,-3.072 -1.92,-7.776 v -20.64 h -7.872 v -10.272 h 7.872 v -9.696 l 13.056,-1.824 v 11.52 h 12 l -1.344,10.272 h -10.656 v 18.624 q 0,2.88 0.96,4.032 1.056,1.152 2.88,1.152 1.344,0 2.592,-0.288 1.248,-0.384 3.072,-1.152 z" />
        <path
           inkscape:connector-curvature="0"
           id="path1299"
           style="font-style:normal;font-variant:normal;font-weight:bold;font-stretch:normal;font-size:96px;font-family:Dubai;-inkscape-font-specification:'Dubai Bold';fill:#056dd9;fill-opacity:1"
           d="m 577.19366,140.75191 q -2.208,0 -4.128,-1.056 -1.92,-1.152 -3.072,-2.976 -1.152,-1.824 -1.152,-4.032 0,-2.208 1.152,-4.032 1.152,-1.92 3.072,-2.976 1.92,-1.152 4.128,-1.152 2.304,0 4.224,1.152 2.016,1.056 3.168,2.976 1.152,1.824 1.152,4.032 0,2.208 -1.152,4.032 -1.152,1.824 -3.168,2.976 -1.92,1.056 -4.224,1.056 z m -6.336,49.632 v -42.912 l 13.056,-1.248 v 44.16 z" />
        <path
           inkscape:connector-curvature="0"
           id="path1301"
           style="font-style:normal;font-variant:normal;font-weight:bold;font-stretch:normal;font-size:96px;font-family:Dubai;-inkscape-font-specification:'Dubai Bold';fill:#056dd9;fill-opacity:1"
           d="m 614.23616,191.72791 q -9.408,0 -15.456,-4.992 -6.048,-4.992 -6.048,-16.992 0,-8.16 3.264,-13.536 3.36,-5.472 8.544,-7.968 5.184,-2.496 10.848,-2.496 4.032,0 7.296,0.96 3.36,0.864 7.488,3.072 l -4.512,8.544 q -3.072,-1.536 -5.184,-2.112 -2.112,-0.576 -4.224,-0.576 -4.512,0 -7.296,3.552 -2.688,3.456 -2.688,10.464 0,6.624 2.688,9.216 2.784,2.496 7.2,2.496 2.688,0 4.992,-0.864 2.4,-0.864 5.28,-2.496 l 4.608,8.352 q -8.352,5.376 -16.8,5.376 z" />
        <path
           inkscape:connector-curvature="0"
           id="path1303"
           style="font-style:normal;font-variant:normal;font-weight:bold;font-stretch:normal;font-size:96px;font-family:Dubai;-inkscape-font-specification:'Dubai Bold';fill:#056dd9;fill-opacity:1"
           d="m 653.34266,191.72791 q -6.144,0 -11.04,-1.44 -4.8,-1.536 -9.024,-4.512 l 5.472,-8.352 q 3.552,2.592 7.2,3.744 3.648,1.056 7.008,1.056 3.168,0 4.608,-0.96 1.536,-0.96 1.536,-2.592 0,-1.056 -0.576,-1.824 -0.576,-0.864 -2.4,-1.632 -1.728,-0.864 -5.184,-1.824 l -2.784,-0.768 q -6.912,-1.92 -9.984,-4.992 -2.976,-3.072 -2.976,-8.352 0,-4.032 2.208,-7.104 2.208,-3.072 6.24,-4.704 4.032,-1.728 9.216,-1.728 9.792,0 17.76,4.704 l -4.992,8.352 q -3.936,-2.016 -6.624,-2.784 -2.688,-0.768 -5.76,-0.768 -2.4,0 -3.648,0.864 -1.152,0.864 -1.152,2.208 0,0.96 0.48,1.632 0.48,0.576 1.728,1.152 1.344,0.48 4.128,1.248 l 3.168,0.864 q 7.392,1.92 10.752,5.376 3.456,3.456 3.456,8.736 0,4.128 -2.112,7.392 -2.016,3.264 -6.336,5.184 -4.224,1.824 -10.368,1.824 z" />
      </g>
      <g
         style="opacity:0.60500004"
         id="g1168">
        <path
           style="opacity:1;fill:#ffff00;fill-opacity:1;stroke:none;stroke-width:5.29166651;stroke-linecap:round;stroke-linejoin:miter;stroke-miterlimit:4;stroke-dasharray:none;stroke-dashoffset:0;stroke-opacity:0.7474747"
           d="m 56.126587,203.38574 h 18.174328 v 57.73022 H 56.126587 Z"
           id="rect1038"
           inkscape:connector-curvature="0" />
        <path
           style="opacity:1;fill:#ffffff;fill-opacity:1;stroke:none;stroke-width:5.88645697;stroke-linecap:round;stroke-linejoin:miter;stroke-miterlimit:4;stroke-dasharray:none;stroke-dashoffset:0;stroke-opacity:0.7474747"
           d="m 88.911652,189.67845 h 18.174328 v 71.4375 H 88.911652 Z"
           id="rect1038-3"
           inkscape:connector-curvature="0" />
        <path
           style="opacity:1;fill:#ff0000;fill-opacity:1;stroke:none;stroke-width:4.38750601;stroke-linecap:round;stroke-linejoin:miter;stroke-miterlimit:4;stroke-dasharray:none;stroke-dashoffset:0;stroke-opacity:0.7474747"
           d="m 121.69672,221.42845 h 18.17432 v 39.6875 h -18.17432 z"
           id="rect1038-6"
           inkscape:connector-curvature="0" />
        <path
           style="opacity:1;fill:#0000ff;fill-opacity:1;stroke:none;stroke-width:6.70202637;stroke-linecap:round;stroke-linejoin:miter;stroke-miterlimit:4;stroke-dasharray:none;stroke-dashoffset:0;stroke-opacity:0.7474747"
           d="m 154.48178,168.5118 h 18.17433 v 92.60416 h -18.17433 z"
           id="rect1038-65"
           inkscape:connector-curvature="0" />
        <path
           style="fill:url(#linearGradient1110);fill-opacity:1;stroke:none;stroke-width:0.26458332px;stroke-linecap:butt;stroke-linejoin:miter;stroke-opacity:1"
           d="M 56.126586,261.11608 H 172.65611 L 55.751489,228.66195 Z"
           id="path1102"
           inkscape:connector-curvature="0" />
        <path
           style="opacity:1;fill:#666666;fill-opacity:0.16666667;stroke:none;stroke-width:5.29166651;stroke-linecap:round;stroke-linejoin:miter;stroke-miterlimit:4;stroke-dasharray:none;stroke-dashoffset:0;stroke-opacity:0.7474747"
           d="m 183.34689,263.32404 a 69.490074,4.2763124 0 0 1 -69.49007,4.27631 69.490074,4.2763124 0 0 1 -69.490075,-4.27631 69.490074,4.2763124 0 0 1 69.490075,-4.27632 69.490074,4.2763124 0 0 1 69.49007,4.27632 z"
           id="path1112"
           inkscape:connector-curvature="0" />
        <path
           style="opacity:0.54100001;fill:none;fill-opacity:1;stroke:#ffffff;stroke-width:5.29166651;stroke-linecap:round;stroke-linejoin:miter;stroke-miterlimit:4;stroke-dasharray:none;stroke-dashoffset:0;stroke-opacity:1"
           d="M 65.213753,179.43872 97.998816,166.50255"
           id="path1149"
           inkscape:connector-curvature="0" />
        <path
           style="opacity:1;fill:#ffffff;fill-opacity:1;stroke:none;stroke-width:4.69298267;stroke-linecap:round;stroke-linejoin:miter;stroke-miterlimit:4;stroke-dasharray:none;stroke-dashoffset:0;stroke-opacity:0.7474747"
           d="m 106.37914,166.50255 a 8.3803263,8.3803263 0 0 1 -8.380323,8.38032 8.3803263,8.3803263 0 0 1 -8.380326,-8.38032 8.3803263,8.3803263 0 0 1 8.380326,-8.38033 8.3803263,8.3803263 0 0 1 8.380323,8.38033 z"
           id="path1120-4"
           inkscape:connector-curvature="0" />
        <path
           style="opacity:1;fill:#ffff00;fill-opacity:1;stroke:none;stroke-width:4.69298267;stroke-linecap:round;stroke-linejoin:miter;stroke-miterlimit:4;stroke-dasharray:none;stroke-dashoffset:0;stroke-opacity:0.7474747"
           d="m 73.594079,179.43872 a 8.3803263,8.3803263 0 0 1 -8.380326,8.38033 8.3803263,8.3803263 0 0 1 -8.380327,-8.38033 8.3803263,8.3803263 0 0 1 8.380327,-8.38033 8.3803263,8.3803263 0 0 1 8.380326,8.38033 z"
           id="path1120"
           inkscape:connector-curvature="0" />
        <path
           style="opacity:0.54100001;fill:none;fill-opacity:1;stroke:#ffffff;stroke-width:5.29166651;stroke-linecap:round;stroke-linejoin:miter;stroke-miterlimit:4;stroke-dasharray:none;stroke-dashoffset:0;stroke-opacity:1"
           d="m 97.998816,166.50255 32.785054,22.45063"
           id="path1151"
           inkscape:connector-curvature="0" />
        <path
           style="opacity:0.54100001;fill:none;fill-opacity:1;stroke:#ffffff;stroke-width:5.29166651;stroke-linecap:round;stroke-linejoin:miter;stroke-miterlimit:4;stroke-dasharray:none;stroke-dashoffset:0;stroke-opacity:1"
           d="m 130.78387,188.95318 32.78507,-42.22859"
           id="path1153"
           inkscape:connector-curvature="0" />
        <path
           style="opacity:1;fill:#0000ff;fill-opacity:1;stroke:none;stroke-width:4.69298267;stroke-linecap:round;stroke-linejoin:miter;stroke-miterlimit:4;stroke-dasharray:none;stroke-dashoffset:0;stroke-opacity:0.7474747"
           d="m 171.94927,146.72459 a 8.3803263,8.3803263 0 0 1 -8.38033,8.38033 8.3803263,8.3803263 0 0 1 -8.38033,-8.38033 8.3803263,8.3803263 0 0 1 8.38033,-8.38032 8.3803263,8.3803263 0 0 1 8.38033,8.38032 z"
           id="path1120-6"
           inkscape:connector-curvature="0" />
        <path
           style="opacity:1;fill:#ff0000;fill-opacity:1;stroke:none;stroke-width:4.69298267;stroke-linecap:round;stroke-linejoin:miter;stroke-miterlimit:4;stroke-dasharray:none;stroke-dashoffset:0;stroke-opacity:0.7474747"
           d="m 139.1642,188.95319 a 8.3803263,8.3803263 0 0 1 -8.38033,8.38032 8.3803263,8.3803263 0 0 1 -8.38032,-8.38032 8.3803263,8.3803263 0 0 1 8.38032,-8.38033 8.3803263,8.3803263 0 0 1 8.38033,8.38033 z"
           id="path1120-1"
           inkscape:connector-curvature="0" />
      </g>
      <g
         aria-label="?"
         transform="matrix(0.50931097,0,0,0.50931097,41.861085,102.7564)"
         style="font-style:normal;font-variant:normal;font-weight:normal;font-stretch:normal;font-size:10.66666698px;line-height:1.25;font-family:Dubai;-inkscape-font-specification:Dubai;letter-spacing:0px;word-spacing:0px;fill:#ffffff;fill-opacity:1;stroke:none"
         id="flowRoot1014">
        <path
           d="m 161.97277,242.67106 c 0,-11.62569 1.23303,-13.5633 11.80184,-20.96147 16.38165,-11.62569 21.13761,-19.37615 21.13761,-34.17248 0,-23.95596 -17.96697,-40.51376 -43.86055,-40.51376 -15.14862,0 -26.95046,5.28441 -34.52477,15.67707 -5.81284,7.75045 -8.10275,16.2055 -8.2789,30.64954 h 23.95597 v -0.3523 c -0.70459,-14.26789 7.75046,-25.18899 19.37614,-25.18899 10.56881,0 18.49542,8.80734 18.49542,20.25688 0,7.92661 -2.11376,11.2734 -12.50643,19.72844 -13.91559,11.97799 -17.96697,19.90459 -17.43853,34.87707 z m 2.81835,9.68807 H 138.3691 v 25.71743 h 26.42202 z"
           style="font-style:normal;font-variant:normal;font-weight:bold;font-stretch:normal;font-size:192px;font-family:'Nachlieli CLM';-inkscape-font-specification:'Nachlieli CLM Bold';fill:#ffffff"
           id="path1315"
           inkscape:connector-curvature="0" />
      </g>
      <g
         aria-label="What"
         transform="matrix(0.26458333,0,0,0.26458333,-1.6036172,132.52586)"
         style="font-style:normal;font-variant:normal;font-weight:normal;font-stretch:normal;font-size:10.66666698px;line-height:1.25;font-family:Dubai;-inkscape-font-specification:Dubai;letter-spacing:0px;word-spacing:0px;fill:#ffffff;fill-opacity:1;stroke:none"
         id="flowRoot1170">
        <path
           d="m 127.67025,272.25056 v 0.768 l -15.936,61.44 h -16.896 l -7.68,-34.08 q -1.344,-5.664 -2.4,-13.728 -1.056,8.064 -2.4,13.728 l -7.488,34.08 h -16.896 l -16.032,-61.44 v -0.768 h 13.92 l 7.968,33.696 q 0.672,2.688 1.44,7.104 0.768,4.416 1.344,8.736 1.536,-9.888 2.88,-15.84 l 7.872,-33.696 h 15.456 l 7.68,33.024 q 1.728,7.776 3.072,16.608 0.576,-4.032 1.344,-8.544 0.864,-4.512 1.632,-8.064 l 7.392,-33.024 z"
           style="font-style:normal;font-variant:normal;font-weight:bold;font-stretch:normal;font-size:96px;font-family:Dubai;-inkscape-font-specification:'Dubai Bold';fill:#ffffff"
           id="path1318"
           inkscape:connector-curvature="0" />
        <path
           d="m 162.59325,289.81856 q 6.624,0 9.984,3.264 3.36,3.264 3.36,9.6 v 31.776 h -13.056 v -27.84 q 0,-2.688 -0.576,-4.128 -0.48,-1.536 -1.728,-2.208 -1.248,-0.672 -3.552,-0.672 -4.128,0 -8.928,2.784 v 32.064 h -13.056 v -66.048 l 13.056,-1.248 v 26.784 q 6.72,-4.128 14.496,-4.128 z"
           style="font-style:normal;font-variant:normal;font-weight:bold;font-stretch:normal;font-size:96px;font-family:Dubai;-inkscape-font-specification:'Dubai Bold';fill:#ffffff"
           id="path1320"
           inkscape:connector-curvature="0" />
        <path
           d="m 206.46675,289.81856 q 8.448,0 12.672,3.36 4.32,3.264 4.32,10.848 v 30.432 h -11.136 l -1.056,-3.36 q -3.552,2.592 -7.104,3.648 -3.456,1.056 -7.296,1.056 -4.032,0 -7.104,-1.536 -3.072,-1.536 -4.8,-4.224 -1.632,-2.784 -1.632,-6.336 0,-7.584 7.488,-11.52 7.488,-4.032 19.584,-4.512 v -1.056 q 0,-2.688 -0.576,-4.224 -0.48,-1.536 -1.824,-2.208 -1.344,-0.768 -3.744,-0.768 -6.048,0 -13.728,4.896 l -4.992,-7.872 q 5.184,-3.36 10.08,-4.992 4.992,-1.632 10.848,-1.632 z m -9.6,32.256 q 0,2.112 1.248,3.264 1.248,1.056 3.648,1.056 3.936,0 8.64,-2.592 v -8.352 q -7.008,0.384 -10.272,2.208 -3.264,1.824 -3.264,4.416 z"
           style="font-style:normal;font-variant:normal;font-weight:bold;font-stretch:normal;font-size:96px;font-family:Dubai;-inkscape-font-specification:'Dubai Bold';fill:#ffffff"
           id="path1322"
           inkscape:connector-curvature="0" />
        <path
           d="m 262.28325,332.63456 q -5.664,3.168 -12.672,3.168 -3.552,0 -6.624,-1.344 -2.976,-1.44 -4.896,-4.512 -1.92,-3.072 -1.92,-7.776 v -20.64 h -7.872 v -10.272 h 7.872 v -9.696 l 13.056,-1.824 v 11.52 h 12 l -1.344,10.272 h -10.656 v 18.624 q 0,2.88 0.96,4.032 1.056,1.152 2.88,1.152 1.344,0 2.592,-0.288 1.248,-0.384 3.072,-1.152 z"
           style="font-style:normal;font-variant:normal;font-weight:bold;font-stretch:normal;font-size:96px;font-family:Dubai;-inkscape-font-specification:'Dubai Bold';fill:#ffffff"
           id="path1324"
           inkscape:connector-curvature="0" />
      </g>
      <g
         aria-label="Why"
         transform="matrix(0.26458333,0,0,0.26458333,82.11997,67.642393)"
         style="font-style:normal;font-variant:normal;font-weight:normal;font-stretch:normal;font-size:10.66666698px;line-height:1.25;font-family:Dubai;-inkscape-font-specification:Dubai;letter-spacing:0px;word-spacing:0px;fill:#ffffff;fill-opacity:1;stroke:none"
         id="flowRoot1170-5">
        <path
           d="m 127.67025,272.25056 v 0.768 l -15.936,61.44 h -16.896 l -7.68,-34.08 q -1.344,-5.664 -2.4,-13.728 -1.056,8.064 -2.4,13.728 l -7.488,34.08 h -16.896 l -16.032,-61.44 v -0.768 h 13.92 l 7.968,33.696 q 0.672,2.688 1.44,7.104 0.768,4.416 1.344,8.736 1.536,-9.888 2.88,-15.84 l 7.872,-33.696 h 15.456 l 7.68,33.024 q 1.728,7.776 3.072,16.608 0.576,-4.032 1.344,-8.544 0.864,-4.512 1.632,-8.064 l 7.392,-33.024 z"
           style="font-style:normal;font-variant:normal;font-weight:bold;font-stretch:normal;font-size:96px;font-family:Dubai;-inkscape-font-specification:'Dubai Bold';fill:#ffffff"
           id="path1327"
           inkscape:connector-curvature="0" />
        <path
           d="m 162.59325,289.81856 q 6.624,0 9.984,3.264 3.36,3.264 3.36,9.6 v 31.776 h -13.056 v -27.84 q 0,-2.688 -0.576,-4.128 -0.48,-1.536 -1.728,-2.208 -1.248,-0.672 -3.552,-0.672 -4.128,0 -8.928,2.784 v 32.064 h -13.056 v -66.048 l 13.056,-1.248 v 26.784 q 6.72,-4.128 14.496,-4.128 z"
           style="font-style:normal;font-variant:normal;font-weight:bold;font-stretch:normal;font-size:96px;font-family:Dubai;-inkscape-font-specification:'Dubai Bold';fill:#ffffff"
           id="path1329"
           inkscape:connector-curvature="0" />
        <path
           d="m 225.03075,291.25856 v 0.672 l -13.152,40.896 q -2.4,7.488 -5.472,12 -2.976,4.512 -7.2,6.624 -4.128,2.208 -10.08,2.208 -5.184,0 -9.6,-1.728 l 3.264,-9.12 q 2.592,0.96 5.376,0.96 2.304,0 4.128,-0.672 1.824,-0.576 3.552,-2.688 1.728,-2.016 3.264,-5.952 h -3.456 l -16.128,-42.528 v -0.672 h 13.632 l 7.68,23.136 q 0.864,2.592 2.112,7.776 0.864,-3.84 2.016,-7.584 l 6.528,-23.328 z"
           style="font-style:normal;font-variant:normal;font-weight:bold;font-stretch:normal;font-size:96px;font-family:Dubai;-inkscape-font-specification:'Dubai Bold';fill:#ffffff"
           id="path1331"
           inkscape:connector-curvature="0" />
      </g>
      <g
         aria-label="How"
         transform="matrix(0.26458333,0,0,0.26458333,154.97761,130.94792)"
         style="font-style:normal;font-variant:normal;font-weight:normal;font-stretch:normal;font-size:10.66666698px;line-height:1.25;font-family:Dubai;-inkscape-font-specification:Dubai;letter-spacing:0px;word-spacing:0px;fill:#ffffff;fill-opacity:1;stroke:none"
         id="flowRoot1170-5-0">
        <path
           d="m 88.98225,272.25056 h 13.632 v 62.208 h -13.632 v -25.824 h -28.128 v 25.824 h -13.632 v -62.208 h 13.632 v 24.864 h 28.128 z"
           style="font-style:normal;font-variant:normal;font-weight:bold;font-stretch:normal;font-size:96px;font-family:Dubai;-inkscape-font-specification:'Dubai Bold';fill:#ffffff"
           id="path1334"
           inkscape:connector-curvature="0" />
        <path
           d="m 134.93775,335.80256 q -7.2,0 -12.288,-3.072 -4.992,-3.072 -7.488,-8.256 -2.496,-5.28 -2.496,-11.712 0,-8.256 3.168,-13.344 3.264,-5.088 8.544,-7.296 5.28,-2.304 11.808,-2.304 7.296,0 12.288,2.976 5.088,2.88 7.584,8.064 2.496,5.184 2.496,12 0,7.968 -3.168,13.152 -3.072,5.088 -8.448,7.488 -5.28,2.304 -12,2.304 z m 0.672,-9.696 q 5.184,0 7.296,-3.552 2.112,-3.648 2.112,-9.792 0,-6.528 -2.304,-9.888 -2.208,-3.36 -6.912,-3.36 -5.088,0 -7.392,3.36 -2.304,3.264 -2.304,9.888 0,6.24 2.304,9.792 2.4,3.552 7.2,3.552 z"
           style="font-style:normal;font-variant:normal;font-weight:bold;font-stretch:normal;font-size:96px;font-family:Dubai;-inkscape-font-specification:'Dubai Bold';fill:#ffffff"
           id="path1336"
           inkscape:connector-curvature="0" />
        <path
           d="m 226.34925,291.25856 v 0.672 l -12.384,42.528 h -12.096 l -6.048,-21.024 q -1.344,-4.896 -1.824,-7.872 -0.384,3.456 -1.632,7.872 l -5.664,21.216 h -12.48 l -13.056,-42.72 v -0.672 h 14.112 l 4.608,20.256 q 0.864,4.032 1.248,7.968 0.768,-4.32 1.632,-7.872 l 5.28,-20.352 h 12.48 l 5.376,19.776 q 1.056,4.512 1.728,8.256 0.384,-4.032 1.248,-8.256 l 3.936,-19.776 z"
           style="font-style:normal;font-variant:normal;font-weight:bold;font-stretch:normal;font-size:96px;font-family:Dubai;-inkscape-font-specification:'Dubai Bold';fill:#ffffff"
           id="path1338"
           inkscape:connector-curvature="0" />
      </g>
    </g>
  </g>
</svg>
