<?xml version="1.0" encoding="UTF-8" standalone="no"?>
<!-- Created with Inkscape (http://www.inkscape.org/) -->

<svg
   xmlns:dc="http://purl.org/dc/elements/1.1/"
   xmlns:cc="http://creativecommons.org/ns#"
   xmlns:rdf="http://www.w3.org/1999/02/22-rdf-syntax-ns#"
   xmlns:svg="http://www.w3.org/2000/svg"
   xmlns="http://www.w3.org/2000/svg"
   xmlns:xlink="http://www.w3.org/1999/xlink"
   xmlns:sodipodi="http://sodipodi.sourceforge.net/DTD/sodipodi-0.dtd"
   xmlns:inkscape="http://www.inkscape.org/namespaces/inkscape"
   width="250"
   height="140"
   viewBox="0 0 66.145832 37.041668"
   version="1.1"
   id="svg8"
   inkscape:version="0.92.5 (2060ec1f9f, 2020-04-08)"
   sodipodi:docname="b.svg"
   inkscape:export-filename="/home/jpawitro/git/landak-tech.github.io/img/b.png"
   inkscape:export-xdpi="96"
   inkscape:export-ydpi="96">
  <defs
     id="defs2">
    <linearGradient
       id="linearGradient-1"
       y2="292.90582"
       x2="290.56281"
       y1="84.698267"
       x1="83.725076"
       gradientTransform="scale(1.0033058,0.9967051)"
       gradientUnits="userSpaceOnUse">
      <stop
         id="stop817"
         offset="0%"
         stop-opacity="0.2"
         stop-color="#263238" />
      <stop
         id="stop819"
         offset="43.13%"
         stop-opacity="0"
         stop-color="#263238" />
    </linearGradient>
    <linearGradient
       id="linearGradient-2"
       y2="127.95792"
       x2="256.0842"
       y1="127.95792"
       x1="0"
       gradientTransform="scale(0.99967122,1.0003289)"
       gradientUnits="userSpaceOnUse">
      <stop
         id="stop822"
         offset="0%"
         stop-opacity="0.1"
         stop-color="#FFFFFF" />
      <stop
         id="stop824"
         offset="100%"
         stop-opacity="0"
         stop-color="#FFFFFF" />
    </linearGradient>
    <rect
       height="33.9"
       width="32.2"
       y="0"
       x="0.9"
       id="SVGID_1_" />
    <rect
       height="33.9"
       width="32.2"
       y="0"
       x="0.9"
       id="SVGID_1_-3" />
  </defs>
  <sodipodi:namedview
     id="base"
     pagecolor="#ffffff"
     bordercolor="#666666"
     borderopacity="1.0"
     inkscape:pageopacity="0.0"
     inkscape:pageshadow="2"
     inkscape:zoom="1.4"
     inkscape:cx="-167.99274"
     inkscape:cy="-117.83797"
     inkscape:document-units="px"
     inkscape:current-layer="layer1"
     showgrid="false"
     units="px"
     inkscape:window-width="1920"
     inkscape:window-height="1055"
     inkscape:window-x="0"
     inkscape:window-y="0"
     inkscape:window-maximized="1" />
  <metadata
     id="metadata5">
    <rdf:RDF>
      <cc:Work
         rdf:about="">
        <dc:format>image/svg+xml</dc:format>
        <dc:type
           rdf:resource="http://purl.org/dc/dcmitype/StillImage" />
        <dc:title />
      </cc:Work>
    </rdf:RDF>
  </metadata>
  <g
     inkscape:label="Layer 1"
     inkscape:groupmode="layer"
     id="layer1"
     transform="translate(0,-259.95832)">
    <rect
       style="opacity:1;fill:#e6e6e6;fill-opacity:1;stroke:none;stroke-width:53.31563568;stroke-miterlimit:4;stroke-dasharray:none;stroke-opacity:1"
       id="rect815"
       width="66.145836"
       height="37.041668"
       x="7.1054274e-15"
       y="259.95831" />
    <g
       id="g845"
       transform="matrix(0.73951864,0,0,0.73951864,20.501101,265.89234)">
      <defs
         id="defs830">
        <rect
           height="33.900002"
           width="32.200001"
           y="0"
           x="0.89999998"
           id="rect855" />
      </defs>
      <clipPath
         id="SVGID_2_">
        <use
           id="use832"
           overflow="visible"
           xlink:href="#SVGID_1_-3"
           style="overflow:visible"
           x="0"
           y="0"
           width="100%"
           height="100%" />
      </clipPath>
      <path
         id="path835"
         d="m 11.1,27.3 c 0,1.1 -0.9,2.1 -2.1,2.1 -1.2,0 -2.1,-0.9 -2.1,-2.1 v -9 c 0,-1.1 0.9,-2.1 2.1,-2.1 1.2,0 2.1,0.9 2.1,2.1 z"
         clip-path="url(#SVGID_2_)"
         inkscape:connector-curvature="0"
         style="fill:#231f20" />
      <path
         id="path837"
         d="m 17.1,29.7 c 0,1.1 -0.9,2.1 -2.1,2.1 -1.2,0 -2,-0.9 -2,-2.1 V 16 c 0,-1.1 0.9,-2.1 2.1,-2.1 1.2,0 2.1,0.9 2.1,2.1 v 13.7 z"
         clip-path="url(#SVGID_2_)"
         inkscape:connector-curvature="0"
         style="fill:#231f20" />
      <path
         id="path839"
         d="m 5,25.3 c 0,1.1 -0.9,2.1 -2.1,2.1 -1.2,0 -2.1,-0.9 -2.1,-2.1 v -4.9 c 0,-1.1 0.9,-2.1 2.1,-2.1 1.2,0 2.1,1 2.1,2.1 z"
         clip-path="url(#SVGID_2_)"
         inkscape:connector-curvature="0"
         style="fill:#231f20" />
      <path
         id="path841"
         d="M 23.1,31.9 C 23.1,33 22.2,34 21,34 19.9,34 19,33 19,31.9 V 13.7 c 0,-1.1 0.9,-2.1 2.1,-2.1 1.1,0 2.1,0.9 2.1,2.1 v 18.2 z"
         clip-path="url(#SVGID_2_)"
         inkscape:connector-curvature="0"
         style="fill:#231f20" />
      <path
         id="path843"
         d="M 29.7,31 C 29.3,31 29,30.9 28.6,30.8 L 26.1,30 c -0.4,-0.1 -0.7,-0.6 -0.5,-1 0.1,-0.4 0.6,-0.7 1,-0.5 l 2.6,0.8 c 0.5,0.2 1.1,0.1 1.6,-0.3 0.5,-0.3 0.7,-0.9 0.7,-1.4 V 10.9 C 31.5,10.1 31,9.4 30.3,9.2 L 5.8,1.8 C 5.3,1.6 4.7,1.7 4.2,2 3.8,2.4 3.5,2.9 3.5,3.5 V 15 c 0,0.5 -0.4,0.8 -0.8,0.8 C 2.2,15.8 1.9,15.4 1.9,15 V 3.5 C 1.9,2.4 2.4,1.4 3.3,0.8 4.2,0.1 5.3,0 6.3,0.3 l 24.4,7.4 c 1.4,0.4 2.4,1.8 2.4,3.3 v 16.7 c 0,1.1 -0.5,2.1 -1.4,2.8 -0.6,0.2 -1.3,0.5 -2,0.5"
         clip-path="url(#SVGID_2_)"
         inkscape:connector-curvature="0"
         style="fill:#231f20" />
    </g>
  </g>
</svg>
