<?xml version="1.0" encoding="UTF-8" standalone="no"?>
<!-- Created with Inkscape (http://www.inkscape.org/) -->

<svg
   xmlns:dc="http://purl.org/dc/elements/1.1/"
   xmlns:cc="http://creativecommons.org/ns#"
   xmlns:rdf="http://www.w3.org/1999/02/22-rdf-syntax-ns#"
   xmlns:svg="http://www.w3.org/2000/svg"
   xmlns="http://www.w3.org/2000/svg"
   xmlns:sodipodi="http://sodipodi.sourceforge.net/DTD/sodipodi-0.dtd"
   xmlns:inkscape="http://www.inkscape.org/namespaces/inkscape"
   width="250"
   height="140"
   viewBox="0 0 66.145832 37.041668"
   version="1.1"
   id="svg8"
   inkscape:version="0.92.5 (2060ec1f9f, 2020-04-08)"
   sodipodi:docname="g.svg"
   inkscape:export-filename="/home/jpawitro/git/landak-tech.github.io/img/g.png"
   inkscape:export-xdpi="96"
   inkscape:export-ydpi="96">
  <defs
     id="defs2">
    <linearGradient
       id="linearGradient-1"
       y2="292.90582"
       x2="290.56281"
       y1="84.698267"
       x1="83.725076"
       gradientTransform="scale(1.0033058,0.9967051)"
       gradientUnits="userSpaceOnUse">
      <stop
         id="stop817"
         offset="0%"
         stop-opacity="0.2"
         stop-color="#263238" />
      <stop
         id="stop819"
         offset="43.13%"
         stop-opacity="0"
         stop-color="#263238" />
    </linearGradient>
    <linearGradient
       id="linearGradient-2"
       y2="127.95792"
       x2="256.0842"
       y1="127.95792"
       x1="0"
       gradientTransform="scale(0.99967122,1.0003289)"
       gradientUnits="userSpaceOnUse">
      <stop
         id="stop822"
         offset="0%"
         stop-opacity="0.1"
         stop-color="#FFFFFF" />
      <stop
         id="stop824"
         offset="100%"
         stop-opacity="0"
         stop-color="#FFFFFF" />
    </linearGradient>
  </defs>
  <sodipodi:namedview
     id="base"
     pagecolor="#ffffff"
     bordercolor="#666666"
     borderopacity="1.0"
     inkscape:pageopacity="0.0"
     inkscape:pageshadow="2"
     inkscape:zoom="5.496"
     inkscape:cx="125"
     inkscape:cy="79.947743"
     inkscape:document-units="px"
     inkscape:current-layer="layer1"
     showgrid="false"
     units="px"
     inkscape:window-width="1920"
     inkscape:window-height="1055"
     inkscape:window-x="0"
     inkscape:window-y="0"
     inkscape:window-maximized="1" />
  <metadata
     id="metadata5">
    <rdf:RDF>
      <cc:Work
         rdf:about="">
        <dc:format>image/svg+xml</dc:format>
        <dc:type
           rdf:resource="http://purl.org/dc/dcmitype/StillImage" />
        <dc:title />
      </cc:Work>
    </rdf:RDF>
  </metadata>
  <g
     inkscape:label="Layer 1"
     inkscape:groupmode="layer"
     id="layer1"
     transform="translate(0,-259.95832)">
    <rect
       style="opacity:1;fill:#e6e6e6;fill-opacity:1;stroke:none;stroke-width:53.31563568;stroke-miterlimit:4;stroke-dasharray:none;stroke-opacity:1"
       id="rect815"
       width="66.145836"
       height="37.041668"
       x="7.1054274e-15"
       y="259.95831" />
    <g
       id="g845"
       transform="matrix(0.09301758,0,0,0.09301758,21.166668,266.56506)">
      <path
         id="path829"
         d="M 256,20.547368 C 256,9.2631579 246.73684,0 235.45263,0 H 20.547368 C 9.2631579,0 0,9.2631579 0,20.547368 V 235.62105 c 0,11.28421 9.2631579,20.54737 20.547368,20.54737 H 125.64211 C 197.89474,256.16842 256,201.09474 256,126.65263 c 0,-21.22105 0,-106.105262 0,-106.105262 z"
         inkscape:connector-curvature="0"
         style="fill:#3367d6;fill-rule:nonzero" />
      <path
         id="path831"
         d="m 256,126.48421 c 0,-7.24211 0,-21.89474 0,-38.063157 L 168.75789,1.6842105 0,168.42105 87.747368,256 H 125.64211 C 197.89474,256 256,200.92632 256,126.48421 Z"
         inkscape:connector-curvature="0"
         style="fill:url(#linearGradient-1);fill-rule:nonzero" />
      <path
         id="path833"
         d="M 79.326316,1.6842105 H 235.45263 C 246.73684,1.6842105 256,10.947368 256,22.231579 V 20.547368 C 256,9.2631579 246.73684,0 235.45263,0 H 79.326316 Z"
         inkscape:connector-curvature="0"
         style="opacity:0.2;fill:#ffffff;fill-rule:nonzero" />
      <path
         id="path835"
         d="M 20.547368,0 C 9.2631579,0 0,9.2631579 0,20.547368 V 168.42105 c 0,0 50.694737,0 84.042105,0 47.831575,0 84.378945,-38.73684 84.378945,-84.547366 V 0 Z"
         inkscape:connector-curvature="0"
         style="fill:#000000;fill-rule:nonzero" />
      <path
         id="path837"
         d="M 20.547368,0 C 9.2631579,0 0,9.2631579 0,20.547368 V 168.42105 c 0,0 50.694737,0 84.042105,0 47.831575,0 84.378945,-38.73684 84.378945,-84.547366 V 0 Z"
         inkscape:connector-curvature="0"
         style="fill:#64b5f6" />
      <path
         id="path839"
         d="M 168.42105,1.6842105 H 20.547368 C 9.2631579,1.6842105 0,10.947368 0,22.231579 V 20.547368 C 0,9.2631579 9.2631579,0 20.547368,0 H 168.42105 Z"
         inkscape:connector-curvature="0"
         style="opacity:0.2;fill:#ffffff;fill-rule:nonzero" />
      <path
         id="path841"
         d="M 125.64211,254.31579 H 20.547368 C 9.2631579,254.31579 0,245.05263 0,233.76842 v 1.68421 C 0,246.73684 9.2631579,256 20.547368,256 H 125.64211 C 197.89474,256 256,200.92632 256,126.48421 c 0,-0.50526 0,-1.01053 0,-1.68421 0,74.4421 -58.10526,129.51579 -130.35789,129.51579 z"
         inkscape:connector-curvature="0"
         style="fill:#263238;fill-rule:nonzero" />
      <path
         id="path843"
         d="M 256,20.547368 C 256,9.2631579 246.73684,0 235.45263,0 H 20.547368 C 9.2631579,0 0,9.2631579 0,20.547368 V 235.62105 c 0,11.28421 9.2631579,20.54737 20.547368,20.54737 H 125.64211 C 197.89474,256.16842 256,201.09474 256,126.65263 c 0,-21.22105 0,-106.105262 0,-106.105262 z"
         inkscape:connector-curvature="0"
         style="fill:url(#linearGradient-2);fill-rule:nonzero" />
    </g>
  </g>
</svg>
