<?xml version="1.0" encoding="UTF-8" standalone="no"?>
<!-- Created with Inkscape (http://www.inkscape.org/) -->

<svg
   xmlns:dc="http://purl.org/dc/elements/1.1/"
   xmlns:cc="http://creativecommons.org/ns#"
   xmlns:rdf="http://www.w3.org/1999/02/22-rdf-syntax-ns#"
   xmlns:svg="http://www.w3.org/2000/svg"
   xmlns="http://www.w3.org/2000/svg"
   xmlns:sodipodi="http://sodipodi.sourceforge.net/DTD/sodipodi-0.dtd"
   xmlns:inkscape="http://www.inkscape.org/namespaces/inkscape"
   width="1793.8781"
   height="319.612"
   viewBox="0 0 474.63022 84.564011"
   version="1.1"
   id="svg2562"
   inkscape:version="0.92.5 (2060ec1f9f, 2020-04-08)"
   sodipodi:docname="logo.svg"
   inkscape:export-filename="C:\Users\jpawi\Pictures\Landak-logo\Analytics\g2485.png"
   inkscape:export-xdpi="96"
   inkscape:export-ydpi="96">
  <defs
     id="defs2556" />
  <sodipodi:namedview
     id="base"
     pagecolor="#ffffff"
     bordercolor="#666666"
     borderopacity="1.0"
     inkscape:pageopacity="0.0"
     inkscape:pageshadow="2"
     inkscape:zoom="0.49497474"
     inkscape:cx="777.10417"
     inkscape:cy="284.09483"
     inkscape:document-units="px"
     inkscape:current-layer="layer1"
     showgrid="false"
     units="px"
     borderlayer="false"
     showborder="true"
     inkscape:pagecheckerboard="true"
     inkscape:window-width="1920"
     inkscape:window-height="1055"
     inkscape:window-x="0"
     inkscape:window-y="0"
     inkscape:window-maximized="1" />
  <metadata
     id="metadata2559">
    <rdf:RDF>
      <cc:Work
         rdf:about="">
        <dc:format>image/svg+xml</dc:format>
        <dc:type
           rdf:resource="http://purl.org/dc/dcmitype/StillImage" />
        <dc:title />
      </cc:Work>
    </rdf:RDF>
  </metadata>
  <g
     inkscape:label="Layer 1"
     inkscape:groupmode="layer"
     id="layer1"
     transform="translate(0,-212.43599)">
    <g
       transform="translate(-2169.8591,-587.5616)"
       aria-label="Landak"
       style="font-style:normal;font-weight:normal;font-size:78.03447723px;line-height:1.25;font-family:sans-serif;letter-spacing:0px;word-spacing:0px;display:inline;opacity:1;fill:#056dd9;fill-opacity:1;stroke:none;stroke-width:1.95086181"
       id="text4683-7-8-2-4-4-54-0-7-7-4-3"
       inkscape:export-filename="C:\Users\jpawi\Pictures\Landak-logo\logo23.png"
       inkscape:export-xdpi="95.911972"
       inkscape:export-ydpi="95.911972">
      <path
         inkscape:connector-curvature="0"
         d="m 2180.9399,859.56414 h 22.9422 v 9.52021 h -34.023 v -50.56634 h 11.0808 z"
         style="font-style:normal;font-variant:normal;font-weight:bold;font-stretch:normal;font-family:Dubai;-inkscape-font-specification:'Dubai Bold';fill:#333333;fill-opacity:1;stroke-width:1.95086181"
         id="path1166-5-6-0" />
      <path
         inkscape:connector-curvature="0"
         d="m 2226.2975,832.79832 q 6.867,0 10.3005,2.73121 3.5116,2.65317 3.5116,8.81789 v 24.73693 h -9.052 l -0.8584,-2.73121 q -2.8873,2.10693 -5.7745,2.96531 -2.8093,0.85838 -5.9307,0.85838 -3.2774,0 -5.7745,-1.24855 -2.4971,-1.24855 -3.9017,-3.43352 -1.3266,-2.263 -1.3266,-5.15027 0,-6.16472 6.0867,-9.36414 6.0867,-3.27745 15.919,-3.66762 v -0.85838 q 0,-2.18496 -0.4682,-3.43351 -0.3902,-1.24856 -1.4827,-1.7948 -1.0924,-0.62427 -3.0433,-0.62427 -4.9162,0 -11.1589,3.97975 l -4.0578,-6.39882 q 4.2138,-2.73121 8.1936,-4.0578 4.0578,-1.32658 8.8179,-1.32658 z m -7.8035,26.21958 q 0,1.71676 1.0145,2.65318 1.0144,0.85837 2.9653,0.85837 3.1994,0 7.0231,-2.10693 v -6.789 q -5.6965,0.31214 -8.3497,1.7948 -2.6532,1.48265 -2.6532,3.58958 z"
         style="font-style:normal;font-variant:normal;font-weight:bold;font-stretch:normal;font-family:Dubai;-inkscape-font-specification:'Dubai Bold';fill:#333333;fill-opacity:1;stroke-width:1.95086181"
         id="path1168-2-9-1" />
      <path
         inkscape:connector-curvature="0"
         d="m 2271.4904,832.79832 q 5.3844,0 8.1156,2.73121 2.7312,2.65317 2.7312,7.80344 v 25.75138 h -10.6127 v -22.63 q 0,-2.18496 -0.4682,-3.35548 -0.3902,-1.24855 -1.4046,-1.79479 -1.0144,-0.54624 -2.8873,-0.54624 -3.1214,0 -7.3352,2.4971 v 25.82941 h -10.6127 v -34.88141 l 10.6127,-1.01445 v 3.43352 q 2.8873,-1.79479 5.7745,-2.80924 2.9653,-1.01445 6.0867,-1.01445 z"
         style="font-style:normal;font-variant:normal;font-weight:bold;font-stretch:normal;font-family:Dubai;-inkscape-font-specification:'Dubai Bold';fill:#333333;fill-opacity:1;stroke-width:1.95086181"
         id="path1170-0-1-4" />
      <path
         inkscape:connector-curvature="0"
         d="m 2324.3173,814.38218 v 54.70217 h -9.052 l -0.7803,-2.41907 q -5.1503,3.51155 -10.6127,3.51155 -7.2572,0 -11.0029,-4.526 -3.6676,-4.60403 -3.6676,-13.34389 0,-6.86704 2.6532,-11.23697 2.6532,-4.36993 6.789,-6.32079 4.2138,-1.95086 8.8959,-1.95086 2.8873,0 6.1647,0.85838 v -18.26007 z m -24.1907,37.84672 q 0,5.15028 1.6388,7.56935 1.6387,2.41907 4.9161,2.41907 1.7948,0 3.5116,-0.54624 1.7167,-0.54625 3.5115,-1.63873 v -19.19648 q -2.419,-0.54624 -4.526,-0.54624 -4.1358,0 -6.6329,3.12138 -2.4191,3.04334 -2.4191,8.81789 z"
         style="font-style:normal;font-variant:normal;font-weight:bold;font-stretch:normal;font-family:Dubai;-inkscape-font-specification:'Dubai Bold';fill:#333333;fill-opacity:1;stroke-width:1.95086181"
         id="path1172-1-2-6" />
      <path
         inkscape:connector-curvature="0"
         style="font-style:normal;font-variant:normal;font-weight:bold;font-stretch:normal;font-family:Dubai;-inkscape-font-specification:'Dubai Bold';fill:#3d3d3d;fill-opacity:1;stroke-width:7.37333584"
         d="m 7644.041,2939.668 c 0,0 -11.2976,1.4759 -20.664,11.3554 0,0 -2.0487,-2.5423 2.4003,-8.8144 0,0 -9.7779,-0.041 -16.8613,11.2324 0,0 -8.3698,-6.9269 -13.3457,-9.0996 0,0 -1.1127,8.158 -2.5762,11.4375 0,0 -8.8582,-5.9041 -14.205,-5.4531 0.4809,-0.041 2.367,3.0843 2.5293,3.3281 1.8646,2.7999 3.5871,5.6409 4.7207,8.6328 2.9115,7.6854 3.5618,15.6721 -0.711,23.1953 -1.2951,2.2804 -3.9567,6.7994 1.6309,7.6074 3.8957,0.5635 8.2398,-1.1709 11.7519,-2.1132 4.1496,-1.1134 8.5246,-1.9236 12.9727,-2.1289 2.2147,-0.1022 4.6615,-0.087 6.6699,0.664 1.8244,0.6827 3.7372,2.0041 3.6602,3.5332 -0.048,0.9485 -0.6379,1.934 -1.1856,2.7871 -0.1243,0.1935 -2.0096,2.4254 -2.0761,2.375 1.09,0.8268 2.8605,1.2392 4.4179,1.3125 1.7476,0.082 4.0986,-0.1152 5.5684,-0.8183 1.9011,-0.9094 2.114,-2.8251 2.8828,-4.2207 0.7552,-1.3709 1.4108,-3.3395 2.7266,-4.5137 1.1633,-1.0381 3.5785,-1.8558 5.3711,-2.1211 4.3256,-0.6398 8.812,-0.3614 13.1953,-0.2832 1.0533,0.019 2.1065,0.043 3.1601,0.062 1.9716,1.3882 3.3681,3.3523 4.168,5.9121 1.1796,3.146 1.7695,7.4712 1.7695,12.9766 v 3.2441 c -24.7744,0.9831 -44.8294,5.6032 -60.166,13.8613 -15.3366,8.0616 -23.0059,19.8595 -23.0059,35.3926 0,7.275 1.6711,13.7628 5.0137,19.4649 3.5392,5.5054 8.4559,9.8325 14.7481,12.9785 6.2917,3.1459 13.5663,4.7187 21.8242,4.7187 7.8648,0 15.3357,-1.0813 22.414,-3.2441 7.2753,-2.1628 14.551,-5.9002 21.8262,-11.209 l 3.2442,10.3242 h 34.2128 v -93.4941 c 0,-1.4759 -0.053,-2.899 -0.1328,-4.2949 0.3741,0.1473 0.7502,0.2914 1.1153,0.4492 2.3097,0.9981 4.1139,0.9865 6.8047,0.7461 -0.3628,-0.6508 -3.5886,-8.4206 -4.0508,-8.3946 l 8.2539,-0.4101 c 0,0 -7.9618,-5.6975 -8.8399,-6.1485 0,0 5.8537,-6.6001 10.3028,-7.625 0,0 -2.3406,-2.2552 -11.7071,-1.1074 l 7.3164,-9.1816 c 0,0 -6.5561,-1.9265 -16.7421,0.4512 l 4.7421,-8.6094 c 0,0 -5.56,-0.9419 -13.5214,1.8047 0,0 -1.5809,-4.3058 3.9218,-9.9629 0,0 -6.498,-1.2698 -14.9863,5.5762 0,0 -1.3468,-5.125 -0.4101,-8.6915 0,0 -8.0796,0.6146 -16.0997,6.7637 0,0 -1.3463,-4.9182 0.059,-9.0996 0,0 -8.897,1.9267 -15.8632,7.3379 0,0 0.4094,-5.6168 1.7558,-8.4863 z m 17.9707,93.9785 v 25.6601 c -9.6344,5.3088 -18.4835,7.9629 -26.5449,7.9629 -4.9157,0 -8.6509,-1.0813 -11.207,-3.2441 -2.5561,-2.3595 -3.834,-5.7016 -3.834,-10.0274 0,-5.3088 3.3421,-9.8306 10.0273,-13.5664 6.6849,-3.7358 17.2051,-5.9986 31.5586,-6.7851 z"
         transform="matrix(0.26458333,0,0,0.26458333,325.55694,50.98101)"
         id="path1174-3-7-3" />
      <path
         inkscape:connector-curvature="0"
         d="m 2394.0106,850.04394 13.578,18.41613 v 0.62428 h -12.4074 l -12.2514,-17.47972 v 17.47972 h -10.6127 v -53.68772 l 10.6127,-1.01445 v 35.34962 l 12.7196,-15.76296 h 11.2369 v 0.54624 z"
         style="font-style:normal;font-variant:normal;font-weight:bold;font-stretch:normal;font-family:Dubai;-inkscape-font-specification:'Dubai Bold';fill:#333333;fill-opacity:1;stroke-width:1.95086181"
         id="path1176-3-5-0" />
    </g>
    <path
       style="display:inline;opacity:1;fill:#3d3d3d;fill-opacity:1;stroke:none;stroke-width:15.63297558;stroke-linejoin:round;stroke-miterlimit:4;stroke-dasharray:none;stroke-dashoffset:0;stroke-opacity:1"
       d="M 898.50586 0 L 898.50586 319.61133 L 1793.8789 319.61133 L 1793.8789 0 L 898.50586 0 z M 1277.4336 13.193359 L 1297.2949 13.193359 L 1297.2949 250.4707 L 1277.4336 250.4707 L 1277.4336 13.193359 z M 1519.1094 45.183594 L 1539.5781 45.183594 L 1539.5781 70.65625 L 1519.1094 70.65625 L 1519.1094 45.183594 z M 1446.7891 57.009766 L 1466.6504 57.009766 L 1466.6504 102.94922 L 1492.4258 102.94922 L 1492.4258 120.68945 L 1466.6504 120.68945 L 1466.6504 232.73242 L 1492.4258 232.73242 L 1492.4258 250.4707 L 1463.7695 250.4707 C 1452.4489 250.4707 1446.7891 244.76149 1446.7891 233.33984 L 1446.7891 120.68945 L 1429.0488 120.68945 L 1429.0488 102.94922 L 1446.7891 102.94922 L 1446.7891 57.009766 z M 1110.0508 102.04102 C 1121.2703 102.04102 1126.8809 107.54907 1126.8809 118.56641 L 1126.8809 250.4707 L 1106.7148 250.4707 L 1106.7148 120.99219 L 1062.291 122.20508 L 1062.291 250.4707 L 1042.127 250.4707 L 1042.127 102.94922 L 1062.291 102.94922 L 1062.291 107.04297 C 1070.175 106.0322 1078.1106 104.9711 1086.0957 103.85938 C 1095.7991 102.64645 1103.784 102.04102 1110.0508 102.04102 z M 943.57617 102.94922 L 992.09375 102.94922 C 1003.4144 102.94922 1009.0742 108.66038 1009.0742 120.08203 L 1009.0742 250.4707 L 989.21289 250.4707 L 989.21289 246.37891 C 981.22786 247.4907 973.24295 248.55173 965.25781 249.5625 C 955.35227 250.77542 947.41857 251.38086 941.45508 251.38086 C 930.43763 251.38086 924.92773 245.92413 924.92773 235.00781 L 924.92773 181.18359 C 924.92773 169.86297 930.63879 164.20312 942.06055 164.20312 L 989.51562 164.20312 L 989.51562 119.7793 L 946.1543 119.7793 L 946.1543 144.94727 L 926.5957 144.94727 L 926.5957 120.08203 C 926.5957 108.66038 932.25555 102.94922 943.57617 102.94922 z M 1177.6719 102.94922 L 1226.1875 102.94922 C 1237.5081 102.94922 1243.1699 108.66038 1243.1699 120.08203 L 1243.1699 250.4707 L 1223.3066 250.4707 L 1223.3066 246.37891 C 1215.3216 247.4907 1207.3367 248.55173 1199.3516 249.5625 C 1189.446 250.77542 1181.5123 251.38086 1175.5488 251.38086 C 1164.5314 251.38086 1159.0215 245.92413 1159.0215 235.00781 L 1159.0215 181.18359 C 1159.0215 169.86297 1164.7325 164.20312 1176.1543 164.20312 L 1223.6113 164.20312 L 1223.6113 119.7793 L 1180.248 119.7793 L 1180.248 144.94727 L 1160.6895 144.94727 L 1160.6895 120.08203 C 1160.6895 108.66038 1166.3513 102.94922 1177.6719 102.94922 z M 1322.918 102.94922 L 1343.6895 102.94922 L 1368.8574 219.08789 L 1394.3301 102.94922 L 1414.4941 102.94922 L 1379.0156 249.25781 L 1364.3105 306.41797 L 1344.4492 306.41797 L 1359.3066 249.25781 L 1322.918 102.94922 z M 1519.4121 102.94922 L 1539.2734 102.94922 L 1539.2734 250.4707 L 1519.4121 250.4707 L 1519.4121 102.94922 z M 1590.3691 102.94922 L 1638.2793 102.94922 C 1649.5999 102.94922 1655.2598 108.66038 1655.2598 120.08203 L 1655.2598 149.49609 L 1635.3984 149.49609 L 1635.3984 120.68945 L 1593.5527 120.68945 L 1593.5527 232.73242 L 1635.3984 232.73242 L 1635.3984 199.83203 L 1655.2598 199.83203 L 1655.2598 233.33984 C 1655.2598 244.76149 1649.5999 250.4707 1638.2793 250.4707 L 1590.3691 250.4707 C 1579.0485 250.4707 1573.3867 244.76149 1573.3867 233.33984 L 1573.3867 120.08203 C 1573.3867 108.66038 1579.0485 102.94922 1590.3691 102.94922 z M 1704.3828 102.94922 L 1750.0195 102.94922 C 1761.4413 102.94922 1767.1523 108.66038 1767.1523 120.08203 L 1767.1523 149.49609 L 1747.5938 149.49609 L 1747.5938 120.38477 L 1706.8086 120.38477 L 1706.8086 146.16016 L 1760.0254 189.37109 C 1764.9782 193.31304 1767.4551 198.66919 1767.4551 205.44141 L 1767.4551 233.33984 C 1767.4551 244.76149 1761.744 250.4707 1750.3223 250.4707 L 1704.0801 250.4707 C 1692.6583 250.4707 1686.9473 244.76149 1686.9473 233.33984 L 1686.9473 199.83203 L 1706.8086 199.83203 L 1706.8086 233.03516 L 1747.5938 233.03516 L 1747.5938 203.62305 L 1694.832 160.41211 C 1689.7782 156.36903 1687.25 151.11346 1687.25 144.64453 L 1687.25 120.08203 C 1687.25 108.66038 1692.9611 102.94922 1704.3828 102.94922 z M 944.48633 179.9707 L 944.48633 233.03516 L 989.51562 232.12695 L 989.51562 179.9707 L 944.48633 179.9707 z M 1178.5801 179.9707 L 1178.5801 233.03516 L 1223.6113 232.12695 L 1223.6113 179.9707 L 1178.5801 179.9707 z "
       transform="matrix(0.26458333,0,0,0.26458333,0,212.43599)"
       id="rect1360-4-5-8-3-5-4-3" />
    <g
       aria-label="analytics"
       transform="matrix(0.42789261,0,0,0.42789261,-2576.9437,-670.11346)"
       style="font-style:normal;font-variant:normal;font-weight:normal;font-stretch:normal;font-size:40px;line-height:1.25;font-family:'Agency FB';-inkscape-font-specification:'Agency FB';letter-spacing:0px;word-spacing:0px;display:inline;opacity:1;fill:#333333;fill-opacity:1;stroke:none"
       id="flowRoot1373-8-2-6" />
  </g>
</svg>
