<?xml version="1.0" encoding="UTF-8" standalone="no"?>
<!-- Created with Inkscape (http://www.inkscape.org/) -->

<svg
   xmlns:dc="http://purl.org/dc/elements/1.1/"
   xmlns:cc="http://creativecommons.org/ns#"
   xmlns:rdf="http://www.w3.org/1999/02/22-rdf-syntax-ns#"
   xmlns:svg="http://www.w3.org/2000/svg"
   xmlns="http://www.w3.org/2000/svg"
   xmlns:sodipodi="http://sodipodi.sourceforge.net/DTD/sodipodi-0.dtd"
   xmlns:inkscape="http://www.inkscape.org/namespaces/inkscape"
   width="250"
   height="140"
   viewBox="0 0 66.145832 37.041668"
   version="1.1"
   id="svg8"
   inkscape:version="0.92.5 (2060ec1f9f, 2020-04-08)"
   sodipodi:docname="p.svg">
  <defs
     id="defs2">
    <linearGradient
       id="linearGradient-1"
       y2="292.90582"
       x2="290.56281"
       y1="84.698267"
       x1="83.725076"
       gradientTransform="scale(1.0033058,0.9967051)"
       gradientUnits="userSpaceOnUse">
      <stop
         id="stop817"
         offset="0%"
         stop-opacity="0.2"
         stop-color="#263238" />
      <stop
         id="stop819"
         offset="43.13%"
         stop-opacity="0"
         stop-color="#263238" />
    </linearGradient>
    <linearGradient
       id="linearGradient-2"
       y2="127.95792"
       x2="256.0842"
       y1="127.95792"
       x1="0"
       gradientTransform="scale(0.99967122,1.0003289)"
       gradientUnits="userSpaceOnUse">
      <stop
         id="stop822"
         offset="0%"
         stop-opacity="0.1"
         stop-color="#FFFFFF" />
      <stop
         id="stop824"
         offset="100%"
         stop-opacity="0"
         stop-color="#FFFFFF" />
    </linearGradient>
  </defs>
  <sodipodi:namedview
     id="base"
     pagecolor="#ffffff"
     bordercolor="#666666"
     borderopacity="1.0"
     inkscape:pageopacity="0.0"
     inkscape:pageshadow="2"
     inkscape:zoom="1.4"
     inkscape:cx="35.102406"
     inkscape:cy="82.804886"
     inkscape:document-units="px"
     inkscape:current-layer="layer1"
     showgrid="false"
     units="px"
     inkscape:window-width="1920"
     inkscape:window-height="1055"
     inkscape:window-x="0"
     inkscape:window-y="0"
     inkscape:window-maximized="1" />
  <metadata
     id="metadata5">
    <rdf:RDF>
      <cc:Work
         rdf:about="">
        <dc:format>image/svg+xml</dc:format>
        <dc:type
           rdf:resource="http://purl.org/dc/dcmitype/StillImage" />
        <dc:title />
      </cc:Work>
    </rdf:RDF>
  </metadata>
  <g
     inkscape:label="Layer 1"
     inkscape:groupmode="layer"
     id="layer1"
     transform="translate(0,-259.95832)">
    <rect
       style="opacity:1;fill:#e6e6e6;fill-opacity:1;stroke:none;stroke-width:53.31563568;stroke-miterlimit:4;stroke-dasharray:none;stroke-opacity:1"
       id="rect815"
       width="66.145836"
       height="37.041668"
       x="7.1054274e-15"
       y="259.95831" />
    <g
       id="g966"
       transform="matrix(0.18039773,0,0,0.18039773,21.166668,266.5729)">
      <rect
         id="rect942"
         width="132"
         rx="6"
         height="132"
         x="0"
         y="0"
         style="fill:#119dff" />
      <g
         id="g956"
         style="fill:#25fefd">
        <circle
           id="circle944"
           r="6"
           cy="54"
           cx="78" />
        <circle
           id="circle946"
           r="6"
           cy="30"
           cx="102" />
        <circle
           id="circle948"
           r="6"
           cy="30"
           cx="78" />
        <circle
           id="circle950"
           r="6"
           cy="30"
           cx="54" />
        <circle
           id="circle952"
           r="6"
           cy="30"
           cx="30" />
        <circle
           id="circle954"
           r="6"
           cy="54"
           cx="30" />
      </g>
      <path
         id="path958"
         d="m 30,72 a 6,6 0 0 0 -6,6 v 24 a 6,6 0 0 0 12,0 V 78 a 6,6 0 0 0 -6,-6 z"
         inkscape:connector-curvature="0"
         style="fill:#ffffff" />
      <path
         id="path960"
         d="m 78,72 a 6,6 0 0 0 -6,6 v 24 a 6,6 0 0 0 12,0 V 78 a 6,6 0 0 0 -6,-6 z"
         inkscape:connector-curvature="0"
         style="fill:#ffffff" />
      <path
         id="path962"
         d="m 54,48 a 6,6 0 0 0 -6,6 v 48 a 6,6 0 0 0 12,0 V 54 a 6,6 0 0 0 -6,-6 z"
         inkscape:connector-curvature="0"
         style="fill:#ffffff" />
      <path
         id="path964"
         d="m 102,48 a 6,6 0 0 0 -6,6 v 48 a 6,6 0 0 0 12,0 V 54 a 6,6 0 0 0 -6,-6 z"
         inkscape:connector-curvature="0"
         style="fill:#ffffff" />
    </g>
  </g>
</svg>
