<?xml version="1.0" encoding="UTF-8" standalone="no"?>
<!-- Created with Inkscape (http://www.inkscape.org/) -->

<svg
   xmlns:dc="http://purl.org/dc/elements/1.1/"
   xmlns:cc="http://creativecommons.org/ns#"
   xmlns:rdf="http://www.w3.org/1999/02/22-rdf-syntax-ns#"
   xmlns:svg="http://www.w3.org/2000/svg"
   xmlns="http://www.w3.org/2000/svg"
   xmlns:sodipodi="http://sodipodi.sourceforge.net/DTD/sodipodi-0.dtd"
   xmlns:inkscape="http://www.inkscape.org/namespaces/inkscape"
   width="250"
   height="140"
   viewBox="0 0 66.145832 37.041668"
   version="1.1"
   id="svg8"
   inkscape:version="0.92.5 (2060ec1f9f, 2020-04-08)"
   sodipodi:docname="b.svg">
  <defs
     id="defs2">
    <linearGradient
       id="linearGradient-1"
       y2="292.90582"
       x2="290.56281"
       y1="84.698267"
       x1="83.725076"
       gradientTransform="scale(1.0033058,0.9967051)"
       gradientUnits="userSpaceOnUse">
      <stop
         id="stop817"
         offset="0%"
         stop-opacity="0.2"
         stop-color="#263238" />
      <stop
         id="stop819"
         offset="43.13%"
         stop-opacity="0"
         stop-color="#263238" />
    </linearGradient>
    <linearGradient
       id="linearGradient-2"
       y2="127.95792"
       x2="256.0842"
       y1="127.95792"
       x1="0"
       gradientTransform="scale(0.99967122,1.0003289)"
       gradientUnits="userSpaceOnUse">
      <stop
         id="stop822"
         offset="0%"
         stop-opacity="0.1"
         stop-color="#FFFFFF" />
      <stop
         id="stop824"
         offset="100%"
         stop-opacity="0"
         stop-color="#FFFFFF" />
    </linearGradient>
    <rect
       height="33.9"
       width="32.2"
       y="0"
       x="0.9"
       id="SVGID_1_" />
  </defs>
  <sodipodi:namedview
     id="base"
     pagecolor="#ffffff"
     bordercolor="#666666"
     borderopacity="1.0"
     inkscape:pageopacity="0.0"
     inkscape:pageshadow="2"
     inkscape:zoom="1.4"
     inkscape:cx="70.578691"
     inkscape:cy="-112.12369"
     inkscape:document-units="px"
     inkscape:current-layer="layer1"
     showgrid="false"
     units="px"
     inkscape:window-width="1920"
     inkscape:window-height="1055"
     inkscape:window-x="0"
     inkscape:window-y="0"
     inkscape:window-maximized="1" />
  <metadata
     id="metadata5">
    <rdf:RDF>
      <cc:Work
         rdf:about="">
        <dc:format>image/svg+xml</dc:format>
        <dc:type
           rdf:resource="http://purl.org/dc/dcmitype/StillImage" />
        <dc:title></dc:title>
      </cc:Work>
    </rdf:RDF>
  </metadata>
  <g
     inkscape:label="Layer 1"
     inkscape:groupmode="layer"
     id="layer1"
     transform="translate(0,-259.95832)">
    <rect
       style="opacity:1;fill:#e6e6e6;fill-opacity:1;stroke:none;stroke-width:53.31563568;stroke-miterlimit:4;stroke-dasharray:none;stroke-opacity:1"
       id="rect815"
       width="66.145836"
       height="37.041668"
       x="7.1054274e-15"
       y="259.95831" />
    <g
       id="g1096"
       transform="matrix(0.3949005,0,0,0.3949005,21.166668,266.73086)">
      <path
         id="path1064"
         d="m 28.5,40.2 h 3.3 v -9 h 8.3 V 28 h -8.3 v -9 h -3.3 v 9 h -8.2 v 3.2 h 8.2 z"
         inkscape:connector-curvature="0"
         style="fill:#e8762d" />
      <path
         id="path1066"
         d="M 13.2,53.2 H 16 v -8 h 7.4 V 42.7 H 16 v -8.1 h -2.8 v 8.1 H 5.8 v 2.5 h 7.4 z"
         inkscape:connector-curvature="0"
         style="fill:#c72037" />
      <path
         id="path1068"
         d="m 44.3,24.3 h 2.8 v -8 h 7.5 V 13.9 H 47.1 V 5.8 h -2.8 v 8.1 h -7.4 v 2.4 h 7.4 z"
         inkscape:connector-curvature="0"
         style="fill:#5b879b" />
      <path
         id="path1070"
         d="m 29,59.5 h 2.4 v -5.7 h 5.1 V 51.7 H 31.4 V 46 H 29 v 5.7 h -5 v 2.1 h 5 z"
         inkscape:connector-curvature="0"
         style="fill:#5c6692" />
      <path
         id="path1072"
         d="m 13.3,24.3 h 2.6 v -8.1 h 7.5 V 13.9 H 15.9 V 5.8 h -2.6 v 8.1 H 5.8 v 2.3 h 7.5 z"
         inkscape:connector-curvature="0"
         style="fill:#eb9129" />
      <path
         id="path1074"
         d="m 52.8,36.3 h 2.4 v -5.6 h 5.1 v -2.2 h -5.1 v -5.6 h -2.4 v 5.6 h -5 v 2.2 h 5 z"
         inkscape:connector-curvature="0"
         style="fill:#5c6692" />
      <path
         id="path1076"
         d="m 44.3,53.2 h 2.8 v -8 h 7.5 v -2.5 h -7.5 v -8.1 h -2.8 v 8.1 h -7.4 v 2.5 h 7.4 z"
         inkscape:connector-curvature="0"
         style="clip-rule:evenodd;fill:#1f457e;fill-rule:evenodd" />
      <path
         id="path1078"
         d="M 36.1,7.2 V 5.5 h -5 V 0 h -1.8 v 5.5 h -5 v 1.7 h 5 v 5.5 h 1.8 V 7.2 Z M 5,35.9 h 1.8 v -5.5 h 5 v -1.7 h -5 V 23.3 H 5 v 5.4 H 0 v 1.8 l 5,-0.1 z"
         inkscape:connector-curvature="0"
         style="fill:#7199a6" />
    </g>
  </g>
</svg>
